<svg width="24" height="24" viewBox="0 0 24 24" fill="none" xmlns="http://www.w3.org/2000/svg">
<path fill-rule="evenodd" clip-rule="evenodd" d="M12 0C5.40659 0 0 5.40659 0 12C0 18.5934 5.40659 24 12 24C18.5934 24 24 18.5934 24 12C24 5.40659 18.5934 0 12 0ZM11.2088 17.2088C10.6154 17.8022 9.82418 18.1319 9.03297 18.1319C8.24176 18.1319 7.45055 17.8022 6.85714 17.2088C6.26374 16.6154 5.93407 15.8242 5.93407 15.033C5.93407 14.1758 6.26374 13.4505 6.85714 12.8571L9.75824 10.022C10.6154 9.16483 12.1319 9.0989 12.989 10.022L13.2527 10.2857L13.5165 10.5495C13.8462 10.8791 13.7802 11.4066 13.4505 11.7363C13.1209 12.0659 12.5934 12 12.2637 11.6703L12 11.3407L11.7363 11.0769C11.5385 10.8791 11.1429 10.8791 10.8791 11.1429L7.97802 13.978C7.71429 14.2418 7.58242 14.6374 7.58242 14.967C7.58242 15.3626 7.71429 15.6923 7.97802 15.956C8.50549 16.4835 9.42857 16.4835 10.022 15.956C10.3516 15.6264 10.8791 15.6264 11.2088 15.956C11.5385 16.2857 11.5385 16.8791 11.2088 17.2088ZM14.3077 14.044L17.2088 11.2088C17.8022 10.6154 18.1319 9.82418 18.1319 9.03297C18.1319 8.24176 17.8022 7.45055 17.2088 6.85714C15.956 5.67033 13.978 5.67033 12.7912 6.85714C12.4615 7.18681 12.4615 7.71429 12.7912 8.04396C13.1209 8.37363 13.6484 8.37363 13.978 8.04396C14.5714 7.51648 15.4945 7.51648 16.022 8.04396C16.2857 8.30769 16.4176 8.63736 16.4176 9.03297C16.4176 9.36264 16.2857 9.75824 16.022 10.022L13.1209 12.8571C12.8571 13.1209 12.4615 13.1209 12.2637 12.9231L11.7363 12.3956C11.4066 12.0659 10.8791 12.0659 10.5494 12.3956C10.2198 12.7253 10.2198 13.2527 10.5494 13.5824L11.011 14.044C11.4725 14.5055 12.0659 14.7033 12.6593 14.7033C13.2527 14.7033 13.8462 14.5055 14.3077 14.044Z" fill="white"/>
</svg>
