<svg width="24" height="24" viewBox="0 0 24 24" fill="none" xmlns="http://www.w3.org/2000/svg">
<path fill-rule="evenodd" clip-rule="evenodd" d="M0 12C0 5.40659 5.40659 0 12 0C18.5934 0 24 5.40659 24 12C24 18.5934 18.5934 24 12 24C5.40659 24 0 18.5934 0 12ZM14.4396 7.05494H15.8242H15.8901V4.74725C15.6264 4.68132 14.8352 4.61538 13.8462 4.61538C11.8681 4.61538 10.4835 5.86813 10.4835 8.10989V10.022H8.24176V12.6593H10.4835V19.3846H13.1868V12.6593H15.4286L15.7582 10.022H13.1209V8.30769C13.1209 7.58242 13.3187 7.05494 14.4396 7.05494Z" fill="white"/>
</svg>
