<svg width="24" height="24" viewBox="0 0 24 24" fill="none" xmlns="http://www.w3.org/2000/svg">
<path fill-rule="evenodd" clip-rule="evenodd" d="M15.2308 8.04395C14.8352 8.04395 14.5055 8.37362 14.5055 8.76922C14.5055 9.16482 14.8352 9.49449 15.2308 9.49449C15.6264 9.49449 15.956 9.16482 15.956 8.76922C15.956 8.37362 15.6264 8.04395 15.2308 8.04395Z" fill="white"/>
<path fill-rule="evenodd" clip-rule="evenodd" d="M0 12C0 5.40659 5.40659 0 12 0C18.5934 0 24 5.40659 24 12C24 18.5934 18.5934 24 12 24C5.40659 24 0 18.5934 0 12ZM17.7363 15.956C17.8681 15.5604 18 15.1648 18 14.5055C18.0659 13.8462 18.0659 13.6484 18.0659 12C18.0659 10.9903 18.0412 10.5248 18.022 10.1642C18.0099 9.93612 18 9.74995 18 9.49451C18 8.9011 17.8681 8.43956 17.7363 8.04396C17.5385 7.64835 17.3407 7.31868 17.011 6.98901C16.6813 6.59341 16.3517 6.3956 15.956 6.26374C15.5604 6.13187 15.1648 6 14.5055 6C13.8462 5.93407 13.6484 5.93407 12 5.93407C10.9903 5.93407 10.5248 5.95881 10.1642 5.97798C9.93612 5.9901 9.74995 6 9.49451 6C8.9011 6 8.43956 6.13187 8.04396 6.26374C7.64835 6.46154 7.31868 6.65934 6.98901 6.98901C6.59341 7.31868 6.3956 7.64835 6.26374 8.04396C6.13187 8.43956 6 8.83517 6 9.49451C5.93407 10.1538 5.93407 10.3516 5.93407 12C5.93407 13.0097 5.95881 13.4752 5.97798 13.8358C5.9901 14.0639 6 14.25 6 14.5055C6 15.0989 6.13187 15.5604 6.26374 15.956C6.46154 16.3517 6.65934 16.6813 6.98901 17.011C7.31868 17.4066 7.64835 17.6044 8.04396 17.7363C8.43956 17.8681 8.83517 18 9.49451 18C10.1538 18.0659 10.3516 18.0659 12 18.0659C13.0097 18.0659 13.4752 18.0412 13.8358 18.022C14.0639 18.0099 14.25 18 14.5055 18C15.0989 18 15.5604 17.8681 15.956 17.7363C16.3517 17.5385 16.6813 17.3407 17.011 17.011C17.4066 16.6813 17.6044 16.3517 17.7363 15.956Z" fill="white"/>
<path fill-rule="evenodd" clip-rule="evenodd" d="M8.90112 12C8.90112 10.2857 10.2857 8.90112 12 8.90112C13.7143 8.90112 15.0989 10.2857 15.0989 12C15.0989 13.7143 13.7143 15.0989 12 15.0989C10.2857 15.0989 8.90112 13.7143 8.90112 12ZM9.95607 12C9.95607 13.1209 10.8791 14.044 12 14.044C13.1209 14.044 14.044 13.1209 14.044 12C14.044 10.8791 13.1209 9.95607 12 9.95607C10.8791 9.95607 9.95607 10.8791 9.95607 12Z" fill="white"/>
</svg>
