<svg width="24" height="24" viewBox="0 0 24 24" fill="none" xmlns="http://www.w3.org/2000/svg">
<path fill-rule="evenodd" clip-rule="evenodd" d="M0 12C0 5.40659 5.40659 0 12 0C18.5934 0 24 5.40659 24 12C24 18.5934 18.5934 24 12 24C5.40659 24 0 18.5934 0 12ZM17.5385 10.022V9.69231C18.0659 9.36264 18.4615 8.9011 18.6593 8.37363C18.1978 8.57143 17.6703 8.7033 17.1429 8.76923C17.7363 8.43956 18.1319 7.91209 18.3297 7.31868C17.8681 7.64835 17.2747 7.84615 16.6813 7.97802C16.2198 7.45055 15.4945 7.12088 14.7692 7.12088C13.3187 7.12088 12.1319 8.30769 12.1319 9.75824C12.1319 9.95604 12.1319 10.1538 12.1978 10.3516C10.022 10.2198 8.10989 9.16483 6.79121 7.58242C6.59341 7.97802 6.46154 8.43956 6.46154 8.9011C6.46154 9.82418 6.92308 10.6154 7.64835 11.0769C7.25275 11.0769 6.79121 10.9451 6.46154 10.7473V10.8132C6.46154 12.0659 7.38462 13.1209 8.57143 13.3846C8.37363 13.4505 8.17582 13.4505 7.91209 13.4505C7.84615 13.4505 7.76374 13.4341 7.68132 13.4176C7.5989 13.4011 7.51648 13.3846 7.45055 13.3846C7.78022 14.4396 8.76923 15.2308 9.89011 15.2308C9.03297 15.956 7.91209 16.3516 6.65934 16.3516C6.56044 16.3516 6.46154 16.3352 6.36264 16.3187C6.26374 16.3022 6.16483 16.2857 6.06593 16.2857C7.25275 17.011 8.63736 17.4725 10.0879 17.4725C14.9011 17.4725 17.5385 13.5165 17.5385 10.022Z" fill="white"/>
</svg>
